<svg width="311" height="32" viewBox="0 0 311 32" fill="none" xmlns="http://www.w3.org/2000/svg">
<g clip-path="url(#clip0_15_76)">
<path d="M1.11619 31.2558L28.109 14.3255H42.16C42.6222 14.3255 42.992 14.6976 42.992 15.1627C42.992 15.5348 42.8071 15.7209 42.6222 15.8139L29.3107 23.8139C28.4787 24.372 28.109 25.3953 28.109 26.1395V31.1627H45.0257V1.86041C45.0257 1.30227 44.5635 0.837158 43.9164 0.837158H27.8316L0.838867 17.6744V31.2558H1.11619Z" fill="#25262A"/>
<path d="M222.697 31.2558H247.009V24.6511H230.37V19.1627H243.774V12.5581H230.37V7.44181H247.009V0.837158H222.697V31.2558Z" fill="#25262A"/>
<path d="M69.985 0.837158L58.3374 31.2558H66.2873L68.321 25.5813H81.2628L83.204 31.2558H91.4313L79.7837 0.837158H69.985ZM70.6321 19.0697L74.8843 7.16274L79.0442 19.0697H70.6321Z" fill="#25262A"/>
<path d="M124.525 7.44181H134.231V31.2558H141.904V7.44181H151.61V0.837158H124.433V7.44181H124.525Z" fill="#25262A"/>
<path d="M113.34 19.5348C113.34 23.4418 110.936 25.1162 106.776 25.1162C102.801 25.1162 100.213 23.4418 100.213 19.5348V0.744141H92.5405V20.4651C92.5405 29.2093 100.306 32 106.869 32C113.34 32 121.105 29.3023 121.105 20.4651V0.744141H113.432L113.34 19.5348Z" fill="#25262A"/>
<path d="M310.516 0.837158H301.365L290.364 13.2093V0.837158H282.691V31.2558H290.364V19.7209L300.81 31.2558H310.516L296.465 16.279L310.516 0.837158Z" fill="#25262A"/>
<path d="M204.579 0.837158H190.436V31.2558H204.579C215.395 31.2558 218.353 27.1627 218.353 15.8139C218.353 5.11623 215.487 0.837158 204.579 0.837158ZM204.209 24.6511H198.108V7.44181H204.209C209.016 7.44181 210.495 8.74414 210.495 15.8139C210.495 22.2325 208.924 24.6511 204.209 24.6511Z" fill="#25262A"/>
<path d="M270.305 13.3023L263.279 12.4651C259.212 12 258.102 10.9767 258.102 9.5814C258.102 8 260.228 6.60465 264.296 6.60465C268.271 6.60465 270.304 8.09302 270.674 10.3256H278.254C277.885 4 272.523 0 264.758 0C255.514 0 250.799 3.72093 250.799 10.3256C250.799 15.6279 253.942 18.2326 260.321 18.8837L267.439 19.6279C270.12 19.907 271.414 21.0233 271.414 22.3256C271.414 23.907 269.565 25.3023 265.22 25.3023C260.136 25.3023 258.102 24 257.825 21.3953H250.43C250.799 28.3721 255.329 32 265.035 32C273.91 32 278.809 28.093 278.809 22.2326C278.717 17.0233 275.759 13.9535 270.305 13.3023Z" fill="#25262A"/>
<path d="M169.544 0C158.543 0 152.904 6.7907 152.904 15.907C152.904 25.1163 158.636 31.907 169.544 31.907C180.544 31.907 186.276 25.1163 186.276 15.907C186.276 6.7907 180.544 0 169.544 0ZM169.544 25.1163C163.812 25.1163 160.762 21.5814 160.762 15.907C160.762 10.3256 163.905 6.7907 169.544 6.7907C175.275 6.7907 178.326 10.3256 178.326 15.907C178.418 21.6744 175.275 25.1163 169.544 25.1163Z" fill="#25262A"/>
</g>
<defs>
<clipPath id="clip0_15_76">
<rect width="309.677" height="32" fill="white" transform="translate(0.838867)"/>
</clipPath>
</defs>
</svg>
