<svg width="155" height="32" viewBox="0 0 155 32" fill="none" xmlns="http://www.w3.org/2000/svg">
<g id="Solidworks svg" clip-path="url(#clip0_15_72)">
<g id="Group">
<g id="Group_2">
<path id="Vector" d="M110.127 15.9825C110.131 15.8493 110.071 15.6794 109.956 15.5886C109.839 15.494 109.712 15.4748 109.588 15.4748H108.948L104.014 26.7184L102.727 20.695C102.652 20.166 102.23 19.805 101.731 19.834H100.901L97.0051 26.6527L97.0436 16.0153C97.0474 15.8724 96.9918 15.6987 96.867 15.6003C96.746 15.4999 96.6096 15.4748 96.4733 15.4748H95.6419V28.2551H96.7018V28.2531C96.7076 28.2531 96.7171 28.2551 96.7248 28.2551C97.0359 28.259 97.3182 28.1798 97.5486 28.0118C97.7579 27.8612 97.9384 27.6508 98.0977 27.3979L101.508 21.2799L102.929 28.2551H103.812H103.839C104.419 28.2551 104.905 27.9153 105.158 27.3362L110.062 16.2489C110.097 16.1582 110.125 16.0984 110.127 15.9825ZM154.829 15.4748H149.583C147.133 15.4806 146.874 17.5038 146.863 18.4575C146.863 19.4614 147.588 20.2606 147.949 20.5849L151.521 24.1025C151.945 24.5214 152.151 25.0156 152.151 25.4751C152.151 26.2531 151.559 26.8901 150.603 26.8863C150.601 26.8921 145.979 26.894 145.937 26.9056C145.785 26.9345 145.626 27.1334 145.63 27.2936H145.616L145.63 27.2995V28.2589H150.822C153.274 28.2492 153.531 26.2299 153.545 25.2762C153.545 25.2723 153.543 25.2724 153.543 25.2685C153.545 23.948 152.335 22.9267 152.327 22.9229L148.94 19.5714C148.518 19.1524 148.257 18.7219 148.255 18.2586C148.257 17.4767 148.848 16.8435 149.8 16.8435C149.806 16.8416 154.482 16.8377 154.52 16.8261C154.672 16.7971 154.835 16.5964 154.831 16.4381C154.831 16.4381 154.829 16.4361 154.831 16.4342C154.831 16.4265 154.829 15.6563 154.829 15.4748ZM117.391 16.7567C115.06 16.6273 112.395 18.0077 111.479 21.7337C110.576 25.3863 112.262 27.1605 114.547 27.4559L114.785 27.4674C117.143 27.5929 119.653 26.2106 120.536 22.4846C121.398 18.8301 119.708 16.9941 117.391 16.7567ZM121.899 22.5947C121.041 26.228 118.437 29.0949 114.28 28.7725V28.7705C110.413 28.3207 109.305 24.8997 110.121 21.6216C111.022 17.9922 113.616 15.1254 117.714 15.4439V15.4477C121.529 15.8956 122.671 19.3205 121.899 22.5947ZM145.046 15.5964C144.939 15.5153 144.818 15.4998 144.697 15.4979H144.077L137.535 21.1236L138.405 16.1523C138.458 15.8763 138.326 15.6891 138.214 15.6099C138.099 15.5211 137.955 15.4748 137.815 15.4748H137.185L134.824 28.2551H136.221L137.256 22.5986L142.437 28.2589H143.057C143.18 28.255 143.299 28.2377 143.405 28.1566C143.512 28.0813 143.57 27.9308 143.566 27.8091C143.566 27.5794 143.38 27.3477 143.38 27.3477L138.477 21.9923L145.021 16.4053C145.021 16.4053 145.206 16.247 145.206 15.9439C145.207 15.8223 145.154 15.6755 145.046 15.5964ZM131.911 17.415C131.655 17.166 131.266 17.0463 130.663 16.9324C130.505 16.9034 130.246 16.8802 129.952 16.8647C129.224 16.8242 127.062 16.8571 126.4 16.8629L125.563 21.5116C126.06 21.5193 126.63 21.5271 127.032 21.529C128.163 21.529 129.257 21.4923 130.031 21.2799C132.022 20.7374 133.009 18.4672 131.911 17.415ZM133.195 16.6427C133.762 17.2895 133.804 18.4903 133.643 19.2298C133.447 20.1333 132.592 22.4132 129.39 22.7009L132.087 27.3477C132.087 27.3477 132.272 27.6257 132.272 27.8091C132.274 27.9308 132.22 28.0813 132.11 28.1566C132.003 28.2377 131.886 28.2589 131.765 28.2589H131.052L127.888 22.7762L125.34 22.7646L124.351 28.2589H122.952L125.317 15.4748H128.583C130.513 15.4748 132.206 15.5037 133.195 16.6427ZM39.1909 18.2046C39.0315 19.2336 39.3464 20.4421 40.4869 21.2433L44.5499 24.0947C44.9762 24.3901 45.1874 24.5947 45.1355 24.9403C45.0587 25.4171 44.8111 25.6103 43.9682 25.6103H39.2428C38.7378 25.6103 38.4631 25.8592 38.371 26.4326V28.2029H43.9066C46.3336 28.2029 47.5337 26.7647 47.7757 25.2357C48.0022 23.7974 47.5223 22.7703 46.5987 22.1082L42.2803 19.027C41.9328 18.776 41.8464 18.6467 41.8713 18.4575C41.9097 18.1447 42.1939 18.0154 42.6855 18.0154H47.6201C48.2231 18.0154 48.5667 17.3957 48.6627 16.7818V15.4207H42.1383C40.6905 15.4207 39.4251 16.7219 39.1909 18.2046ZM88.3763 15.4188H81.533L81.4984 15.6254C81.339 16.4922 81.4102 17.498 82.7754 17.498H87.8443C89.8508 17.498 90.619 18.9575 90.1217 21.6969C89.6647 24.2067 88.3206 26.1238 86.2776 26.1238H83.5299L84.8336 18.9343H82.4969C82.182 18.9343 81.965 19.164 81.9285 19.3687L80.3253 28.201H85.6842C89.6416 28.201 92.4007 26.3284 93.2552 21.6043C93.9157 17.9748 92.4123 15.4188 88.3763 15.4188ZM72.1303 26.1257H66.7289L68.5954 15.855C68.6299 15.6485 68.4783 15.4207 68.2248 15.4207H65.8476L63.5263 28.201H72.4739L72.7063 26.9249C72.81 26.3515 72.618 26.1257 72.1303 26.1257ZM78.8621 15.4188H76.4851L74.1636 28.201H76.9901L79.2327 15.8531C79.2711 15.6466 79.1175 15.4188 78.8621 15.4188ZM56.8789 17.6099C54.3002 17.6099 52.9485 19.1177 52.4646 22.0831C51.9807 25.0542 52.8389 26.5581 55.4176 26.5581C57.9963 26.5581 59.3462 25.0542 59.8301 22.0831C60.3159 19.1177 59.4576 17.6099 56.8789 17.6099ZM62.6372 22.0831C62.0439 25.7125 59.6016 28.7512 55.0605 28.7512C50.5157 28.7512 49.066 25.7125 49.6593 22.0831C50.2507 18.4555 52.6949 15.4207 57.2379 15.4207C61.7789 15.4207 63.2306 18.4555 62.6372 22.0831ZM29.6115 10.9669C26.9099 10.5209 22.0808 10.3491 20.4295 12.8936C19.1546 14.8589 21.5643 17.5521 23.759 20.1603C25.5178 22.2491 27.4321 24.2453 26.6507 25.4114C26.0132 26.3651 21.9215 26.3631 20.5121 26.4384C18.8013 26.5291 16.3359 26.5349 15.9058 26.7704C15.5199 26.9789 15.3048 27.6277 16.7525 27.8883C17.9161 28.0987 20.6868 28.5254 23.6092 28.5234C26.6603 28.5234 29.8649 28.0196 30.56 25.645C31.1188 23.7376 29.1814 21.6931 27.4782 19.6197C25.6157 17.3493 23.7264 15.7315 23.8858 14.1234C24.0067 12.8724 26.4472 12.801 30.4947 12.7295C31.3357 12.7141 33.012 12.6735 32.6894 12.0056C32.4014 11.4148 31.1476 11.2198 29.6115 10.9669ZM17.1596 16.6292C15.4277 15.4342 12.3402 15.0346 9.79795 15.1678C7.53415 15.2875 3.64209 16.0115 3.78802 16.7316C3.92627 17.5096 6.38975 17.2682 7.51877 17.2682C10.0015 17.2682 13.9415 17.4208 14.5617 19.029C15.9 22.4943 6.82563 28.7164 4.89017 28.118C4.0146 27.8496 6.66819 23.3264 7.63016 21.7008C8.20235 20.7297 9.07406 19.2046 8.33098 19.1004C7.49958 18.9845 6.58368 20.4208 5.98845 21.249C4.37365 23.4982 2.72043 25.9539 1.39363 28.4771C0.982733 29.2571 -0.376673 31.6027 0.0899121 31.9058C0.525776 32.1877 2.60138 31.7861 5.24152 30.734C13.5402 27.4308 17.2767 23.1256 18.2771 19.5695C18.6285 18.3165 18.0217 17.2238 17.1596 16.6292ZM10.998 1.43765C10.8271 0.87586 13.5959 0.146081 16.6316 0.0109417C19.6903 -0.124198 23.3078 0.487739 23.9837 2.51676C25.0877 5.8412 19.4868 10.6889 14.6078 13.0712C13.4097 13.6543 12.6857 13.8144 12.3824 13.7739C12.0963 13.7353 12.0502 13.465 12.1443 13.2797C12.3171 12.9303 13.1063 12.2179 14.1585 11.4437C19.6519 7.40886 21.4376 4.44927 20.4008 3.25039C19.7345 2.48202 16.9503 1.94728 14.0587 1.94728C13.2733 1.94728 11.2112 2.11914 10.998 1.43765Z" fill="#25262A"/>
</g>
</g>
</g>
<defs>
<clipPath id="clip0_15_72">
<rect width="154.839" height="32" fill="white"/>
</clipPath>
</defs>
</svg>
